<mxfile host="Electron" modified="2024-09-09T14:31:33.380Z" agent="Mozilla/5.0 (Windows NT 10.0; Win64; x64) AppleWebKit/537.36 (KHTML, like Gecko) draw.io/22.1.11 Chrome/114.0.5735.289 Electron/25.9.8 Safari/537.36" etag="xcrWI9PSIdwKU1Ub9BJU" version="22.1.11" type="device">
  <diagram name="第 1 页" id="sh-w2n2RwF6hMmeByxSM">
    <mxGraphModel dx="794" dy="519" grid="1" gridSize="10" guides="1" tooltips="1" connect="1" arrows="1" fold="1" page="1" pageScale="1" pageWidth="827" pageHeight="1169" math="0" shadow="0">
      <root>
        <mxCell id="0" />
        <mxCell id="1" parent="0" />
        <mxCell id="bBvoQoGo9gEp6KflvPZa-5" style="edgeStyle=orthogonalEdgeStyle;rounded=0;orthogonalLoop=1;jettySize=auto;html=1;exitX=1;exitY=0.5;exitDx=0;exitDy=0;entryX=0;entryY=0.5;entryDx=0;entryDy=0;" edge="1" parent="1" source="bBvoQoGo9gEp6KflvPZa-1" target="bBvoQoGo9gEp6KflvPZa-3">
          <mxGeometry relative="1" as="geometry" />
        </mxCell>
        <mxCell id="bBvoQoGo9gEp6KflvPZa-1" value="&lt;font style=&quot;font-size: 18px;&quot;&gt;&amp;amp;p&lt;/font&gt;" style="rounded=0;whiteSpace=wrap;html=1;fillColor=none;" vertex="1" parent="1">
          <mxGeometry x="160" y="240" width="80" height="40" as="geometry" />
        </mxCell>
        <mxCell id="bBvoQoGo9gEp6KflvPZa-6" style="edgeStyle=orthogonalEdgeStyle;rounded=0;orthogonalLoop=1;jettySize=auto;html=1;exitX=1;exitY=0.5;exitDx=0;exitDy=0;entryX=0;entryY=0.5;entryDx=0;entryDy=0;" edge="1" parent="1" source="bBvoQoGo9gEp6KflvPZa-3" target="bBvoQoGo9gEp6KflvPZa-4">
          <mxGeometry relative="1" as="geometry" />
        </mxCell>
        <mxCell id="bBvoQoGo9gEp6KflvPZa-3" value="&lt;font style=&quot;font-size: 18px;&quot;&gt;&amp;amp;a&lt;/font&gt;" style="rounded=0;whiteSpace=wrap;html=1;fillColor=none;" vertex="1" parent="1">
          <mxGeometry x="280" y="240" width="80" height="40" as="geometry" />
        </mxCell>
        <mxCell id="bBvoQoGo9gEp6KflvPZa-4" value="&lt;font style=&quot;font-size: 18px;&quot;&gt;25&lt;/font&gt;" style="rounded=0;whiteSpace=wrap;html=1;fillColor=none;" vertex="1" parent="1">
          <mxGeometry x="400" y="240" width="80" height="40" as="geometry" />
        </mxCell>
        <mxCell id="bBvoQoGo9gEp6KflvPZa-7" value="&lt;font style=&quot;font-size: 18px;&quot;&gt;pp&lt;/font&gt;" style="text;html=1;strokeColor=none;fillColor=none;align=center;verticalAlign=middle;whiteSpace=wrap;rounded=0;" vertex="1" parent="1">
          <mxGeometry x="170" y="210" width="60" height="30" as="geometry" />
        </mxCell>
        <mxCell id="bBvoQoGo9gEp6KflvPZa-8" value="&lt;font style=&quot;font-size: 18px;&quot;&gt;p&lt;/font&gt;" style="text;html=1;strokeColor=none;fillColor=none;align=center;verticalAlign=middle;whiteSpace=wrap;rounded=0;" vertex="1" parent="1">
          <mxGeometry x="290" y="210" width="60" height="30" as="geometry" />
        </mxCell>
        <mxCell id="bBvoQoGo9gEp6KflvPZa-9" value="&lt;font style=&quot;font-size: 18px;&quot;&gt;a&lt;/font&gt;" style="text;html=1;strokeColor=none;fillColor=none;align=center;verticalAlign=middle;whiteSpace=wrap;rounded=0;" vertex="1" parent="1">
          <mxGeometry x="410" y="210" width="60" height="30" as="geometry" />
        </mxCell>
        <mxCell id="bBvoQoGo9gEp6KflvPZa-10" value="&lt;font style=&quot;font-size: 18px;&quot;&gt;&amp;amp;&amp;amp;a&lt;/font&gt;" style="text;html=1;strokeColor=none;fillColor=none;align=center;verticalAlign=middle;whiteSpace=wrap;rounded=0;" vertex="1" parent="1">
          <mxGeometry x="170" y="280" width="60" height="30" as="geometry" />
        </mxCell>
        <mxCell id="bBvoQoGo9gEp6KflvPZa-11" value="&lt;font style=&quot;font-size: 18px;&quot;&gt;*pp&lt;/font&gt;" style="text;html=1;strokeColor=none;fillColor=none;align=center;verticalAlign=middle;whiteSpace=wrap;rounded=0;" vertex="1" parent="1">
          <mxGeometry x="290" y="280" width="60" height="30" as="geometry" />
        </mxCell>
        <mxCell id="bBvoQoGo9gEp6KflvPZa-12" value="&lt;font style=&quot;font-size: 18px;&quot;&gt;**pp&lt;/font&gt;" style="text;html=1;strokeColor=none;fillColor=none;align=center;verticalAlign=middle;whiteSpace=wrap;rounded=0;" vertex="1" parent="1">
          <mxGeometry x="400" y="280" width="60" height="30" as="geometry" />
        </mxCell>
        <mxCell id="bBvoQoGo9gEp6KflvPZa-13" value="&lt;font style=&quot;font-size: 18px;&quot;&gt;*p&lt;/font&gt;" style="text;html=1;strokeColor=none;fillColor=none;align=center;verticalAlign=middle;whiteSpace=wrap;rounded=0;" vertex="1" parent="1">
          <mxGeometry x="430" y="280" width="60" height="30" as="geometry" />
        </mxCell>
      </root>
    </mxGraphModel>
  </diagram>
</mxfile>
